<?xml version="1.0" encoding="UTF-8"?>
<svg id="Layer_2" data-name="Layer 2" xmlns="http://www.w3.org/2000/svg" viewBox="0 0 54.06 61.05">
  <defs>
    <style>
      .cls-1 {
        fill: #fff;
      }

      .cls-2 {
        fill: #352f31;
      }

      .cls-3 {
        fill: #2fc4ec;
      }
    </style>
  </defs>
  <path class="cls-2" d="M41.44,48.38l-13,12.09c-.88,.81-2.26,.77-3.07-.11l-10.81-11.62c-.81-.88-.77-2.26,.11-3.07l13-12.07c.88-.81,2.26-.77,3.1,.11l10.78,11.6c.81,.88,.77,2.26-.11,3.07Z"/>
  <path class="cls-2" d="M54.06,26.7c0,14.77-12.11,26.73-27.04,26.73S0,41.47,0,26.7,12.08,0,27.02,0s27.04,11.96,27.04,26.7Z"/>
  <path class="cls-1" d="M49,26.7c0,12.16-9.83,22-21.97,22S5.06,38.86,5.06,26.7,14.89,4.73,27.03,4.73s21.97,9.83,21.97,21.97Z"/>
  <circle class="cls-3" cx="27.03" cy="15.36" r="7.28"/>
  <ellipse class="cls-3" cx="27.42" cy="34.78" rx="15.11" ry="10.57"/>
</svg>