<?xml version="1.0" encoding="UTF-8"?>
<svg id="Layer_2" data-name="Layer 2" xmlns="http://www.w3.org/2000/svg" viewBox="0 0 54.06 61.87">
  <defs>
    <style>
      .cls-1 {
        fill: #ee2f24;
      }

      .cls-2 {
        fill: #fff;
      }

      .cls-3 {
        fill: #faa942;
      }

      .cls-4 {
        fill: #fcfafc;
        
        font-size: 4.54px;
        font-weight: 300;
      }

      .cls-5 {
        fill: #f1f2f2;
      }

      .cls-6 {
        fill: #72cef5;
      }
    </style>
  </defs>
  <g>
    <path d="M54.06,26.7C54.06,11.96,41.96,0,27.02,0S0,11.96,0,26.7C0,37.45,6.41,46.71,15.66,50.95l9.51,10.23c.81,.88,2.19,.93,3.07,.11l12.31-11.45c8.08-4.62,13.51-13.25,13.51-23.14Zm-27.03,22c-12.14,0-21.97-9.83-21.97-22S14.89,4.73,27.03,4.73s21.97,9.83,21.97,21.97-9.83,22-21.97,22Z"/>
    <path class="cls-2" d="M27.03,4.73C14.89,4.73,5.06,14.56,5.06,26.7s9.83,22,21.97,22,21.97-9.83,21.97-22S39.17,4.73,27.03,4.73Z"/>
  </g>
  <g>
    <rect class="cls-5" x="14.92" y="21.53" width="24.22" height="19.36" rx=".47" ry=".47"/>
    <polygon class="cls-3" points="41.21 23.84 12.86 23.84 16.03 17.13 38.09 17.13 41.21 23.84"/>
    <path class="cls-3" d="M12.86,23.84h4.05v1.4c0,.47-.38,.86-.86,.86h-2.34c-.47,0-.86-.38-.86-.86v-1.4h0Z"/>
    <path class="cls-3" d="M16.91,23.84h4.05v1.4c0,.47-.38,.86-.86,.86h-2.34c-.47,0-.86-.38-.86-.86v-1.4h0Z"/>
    <path class="cls-3" d="M20.96,23.84h4.05v1.4c0,.47-.38,.86-.86,.86h-2.34c-.47,0-.86-.38-.86-.86v-1.4h0Z"/>
    <path class="cls-3" d="M25,23.84h4.05v1.4c0,.47-.38,.86-.86,.86h-2.34c-.47,0-.86-.38-.86-.86v-1.4h0Z"/>
    <path class="cls-3" d="M29.06,23.84h4.05v1.4c0,.47-.38,.86-.86,.86h-2.34c-.47,0-.86-.38-.86-.86v-1.4h0Z"/>
    <path class="cls-3" d="M33.11,23.84h4.05v1.4c0,.47-.38,.86-.86,.86h-2.34c-.47,0-.86-.38-.86-.86v-1.4h0Z"/>
    <path class="cls-3" d="M37.11,23.84h4.05v1.4c0,.47-.38,.86-.86,.86h-2.34c-.47,0-.86-.38-.86-.86v-1.4h0Z"/>
    <rect class="cls-3" x="17.97" y="29.16" width="11.76" height="7.6"/>
    <rect class="cls-6" x="18.5" y="29.64" width="5.05" height="3.16"/>
    <rect class="cls-6" x="24.09" y="29.64" width="5.05" height="3.16"/>
    <rect class="cls-6" x="18.52" y="33.23" width="5.05" height="3.16"/>
    <rect class="cls-6" x="24.11" y="33.23" width="5.05" height="3.16"/>
    <rect class="cls-3" x="32.18" y="30.94" width="5.44" height="9.96"/>
    <g>
      <polygon class="cls-1" points="22.99 17.17 19.68 17.13 16.91 23.84 20.96 23.84 22.99 17.17"/>
      <path class="cls-1" d="M16.91,23.84h4.05v1.4c0,.47-.38,.86-.86,.86h-2.34c-.47,0-.86-.38-.86-.86v-1.4h0Z"/>
    </g>
    <g>
      <polygon class="cls-1" points="31.08 17.17 34.4 17.13 37.17 23.84 33.11 23.84 31.08 17.17"/>
      <path class="cls-1" d="M33.97,23.84h2.34c.47,0,.86,.38,.86,.86v1.4h-4.05v-1.4c0-.47,.38-.86,.86-.86Z" transform="translate(70.28 49.94) rotate(-180)"/>
    </g>
    <path class="cls-1" d="M25,24.08h4.05v1.4c0,.47-.38,.86-.86,.86h-2.34c-.47,0-.86-.38-.86-.86v-1.4h0Z"/>
    <polygon class="cls-1" points="29.06 24.17 25.02 24.17 25.74 17.13 28.6 17.13 29.06 24.17"/>
  </g>
  <path class="cls-1" d="M20.53,11h13.15c.47,0,.86,.38,.86,.86v5.28h-14.87v-5.28c0-.47,.38-.86,.86-.86Z"/>
</svg>